#!OML:ASF G:\JayActor3\Patient Classification 1\Patient 1\Session 6\male.ASF
:FULLY-SPECIFIED
:DEGREES
1255
root 0.456472 14.6142 -2.59655 386.45 -78.2169 -369.264
lowerback 39.1598 1.87331 0.399541
upperback 18.7713 -0.124176 -3.76024
thorax 1.56316 -0.622496 -4.14976
lowerneck 8.44332 0.505211 -0.182889
upperneck -23.0667 -0.223781 -2.67376
head -8.56129 0.0358766 -0.825163
rclavicle -1.98785e-014 -2.18663e-015
rhumerus 16.7136 24.6904 -58.4734
rradius 118.458
rwrist 16.4972
rhand -47.6641 8.15298
rfingers 7.12502
rthumb -20.3456 -20.8013
lclavicle -1.98785e-014 -2.18663e-015
lhumerus 64.9845 -20.1336 18.983
lradius 94.5381
lwrist 2.31894
lhand -4.46251 11.1712
lfingers 7.12502
lthumb 21.3098 40.0196
rfemur -64.7557 -13.1414 29.7313
rtibia 74.2251
rfoot -29.7407 -21.6036
rtoes -4.13939
lfemur -64.9808 9.83796 -21.5466
ltibia 65.63
lfoot -17.2107 -1.61182
ltoes 3.4097
1256
root 0.455618 14.6158 -2.59319 386.485 -78.2426 -369.267
lowerback 39.1758 1.87138 0.413723
upperback 18.7294 -0.116963 -3.75045
thorax 1.51256 -0.61766 -4.14801
lowerneck 8.32829 0.487457 -0.0824744
upperneck -23.5279 -0.25441 -2.65428
head -8.69774 0.00369398 -0.834086
rclavicle -2.38542e-015 -3.16068e-014
rhumerus 16.6492 24.6752 -58.5428
rradius 118.472
rwrist 16.4338
rhand -47.715 8.14507
rfingers 7.12502
rthumb -20.3945 -20.804
lclavicle -2.38542e-015 -3.16068e-014
lhumerus 64.8948 -20.2801 19.2803
lradius 94.6265
lwrist 2.51957
lhand -4.45368 11.381
lfingers 7.12502
lthumb 21.3182 40.2285
rfemur -64.7778 -13.1368 29.7204
rtibia 74.2044
rfoot -29.7245 -21.5811
rtoes -4.12834
lfemur -64.9973 9.82361 -21.5597
ltibia 65.616
lfoot -17.216 -1.57555
ltoes 3.39114
1257
root 0.454625 14.6173 -2.58996 386.513 -78.2687 -369.257
lowerback 39.1934 1.86994 0.427341
upperback 18.6756 -0.107755 -3.7419
thorax 1.44842 -0.611468 -4.14764
lowerneck 8.19183 0.470231 0.0479885
upperneck -23.9895 -0.286316 -2.66146
head -8.83121 -0.0302117 -0.856894
rclavicle -1.03368e-014 -2.52457e-014
rhumerus 16.5518 24.6759 -58.6259
rradius 118.483
rwrist 16.3677
rhand -47.77 8.13686
rfingers 7.12502
rthumb -20.4474 -20.8065
lclavicle -1.03368e-014 -2.52457e-014
lhumerus 64.7981 -20.4838 19.5751
lradius 94.6961
lwrist 2.72658
lhand -4.52512 11.566
lfingers 7.12502
lthumb 21.2496 40.4212
rfemur -64.8032 -13.1308 29.7078
rtibia 74.1848
rfoot -29.7071 -21.5611
rtoes -4.12574
lfemur -65.0168 9.80869 -21.5753
ltibia 65.6022
lfoot -17.2206 -1.53985
ltoes 3.37063
1258
root 0.453534 14.6188 -2.58683 386.543 -78.2941 -369.247
lowerback 39.2121 1.86958 0.441035
upperback 18.6064 -0.0949769 -3.7319
thorax 1.36704 -0.603191 -4.14657
lowerneck 8.02309 0.462131 0.198387
upperneck -24.421 -0.305696 -2.68786
head -8.94883 -0.0589263 -0.89069
rclavicle -5.32743e-014 -8.34896e-015
rhumerus 16.4206 24.6957 -58.7201
rradius 118.486
rwrist 16.3027
rhand -47.8162 8.12167
rfingers 7.12502
rthumb -20.4917 -20.8169
lclavicle -5.32743e-014 -8.34896e-015
lhumerus 64.6973 -20.7494 19.8574
lradius 94.7371
lwrist 2.904
lhand -4.68272 11.7259
lfingers 7.12502
lthumb 21.0982 40.5981
rfemur -64.8336 -13.1229 29.6962
rtibia 74.1662
rfoot -29.6881 -21.5427
rtoes -4.1296
lfemur -65.0408 9.79326 -21.5911
ltibia 65.5885
lfoot -17.2237 -1.5032
ltoes 3.34029
1259
root 0.452216 14.6203 -2.5839 386.583 -78.3185 -369.243
lowerback 39.2306 1.87216 0.456033
upperback 18.5234 -0.075919 -3.71601
thorax 1.27093 -0.591742 -4.14168
lowerneck 7.82082 0.467193 0.337861
upperneck -24.8127 -0.306404 -2.71168
head -9.04667 -0.0787679 -0.923417
rclavicle -1.74931e-014 1.25234e-014
rhumerus 16.2613 24.7309 -58.8166
rradius 118.476
rwrist 16.2443
rhand -47.8398 8.09455
rfingers 7.12502
rthumb -20.5144 -20.8416
lclavicle -1.74931e-014 1.25234e-014
lhumerus 64.6007 -21.0729 20.1226
lradius 94.7459
lwrist 3.03072
lhand -4.89609 11.8713
lfingers 7.12502
lthumb 20.8932 40.7662
rfemur -64.8657 -13.1128 29.6873
rtibia 74.1475
rfoot -29.6701 -21.5262
rtoes -4.13743
lfemur -65.0684 9.78021 -21.606
ltibia 65.5759
lfoot -17.2276 -1.47057
ltoes 3.32059
1260
root 0.45065 14.6218 -2.58117 386.633 -78.3424 -369.246
lowerback 39.2453 1.87667 0.470782
upperback 18.4297 -0.0525536 -3.69434
thorax 1.16458 -0.578261 -4.13177
lowerneck 7.59564 0.487232 0.448484
upperneck -25.172 -0.285479 -2.71847
head -9.12902 -0.0879155 -0.947411
rclavicle 8.74653e-015 1.94809e-014
rhumerus 16.0897 24.7863 -58.9085
rradius 118.448
rwrist 16.1851
rhand -47.8452 8.06037
rfingers 7.12502
rthumb -20.5197 -20.8752
lclavicle 8.74653e-015 1.94809e-014
lhumerus 64.5027 -21.4486 20.3654
lradius 94.7271
lwrist 3.09962
lhand -5.12376 12.0097
lfingers 7.12502
lthumb 20.6745 40.9285
rfemur -64.9001 -13.1003 29.6814
rtibia 74.129
rfoot -29.6526 -21.5129
rtoes -4.14541
lfemur -65.1 9.77096 -21.6202
ltibia 65.5644
lfoot -17.2317 -1.44143
ltoes 3.2938
1261
root 0.448883 14.6232 -2.57846 386.686 -78.3638 -369.249
lowerback 39.256 1.87762 0.487886
upperback 18.328 -0.0312266 -3.67267
thorax 1.05049 -0.565343 -4.12234
lowerneck 7.36433 0.517127 0.5307
upperneck -25.5113 -0.248729 -2.70134
head -9.20339 -0.0896949 -0.959833
rclavicle -2.78299e-014 2.06736e-014
rhumerus 15.9204 24.8641 -58.9978
rradius 118.399
rwrist 16.13
rhand -47.8274 8.02514
rfingers 7.12502
rthumb -20.5025 -20.9123
lclavicle -2.78299e-014 2.06736e-014
lhumerus 64.4051 -21.8579 20.5714
lradius 94.6857
lwrist 3.14066
lhand -5.28272 12.1482
lfingers 7.12502
lthumb 20.5218 41.0836
rfemur -64.9376 -13.0915 29.6789
rtibia 74.111
rfoot -29.6326 -21.5029
rtoes -4.15732
lfemur -65.136 9.76257 -21.635
ltibia 65.5553
lfoot -17.2365 -1.41563
ltoes 3.27205
1262
root 0.446913 14.6246 -2.5757 386.754 -78.3802 -369.266
lowerback 39.2613 1.87078 0.509525
upperback 18.2238 -0.0170901 -3.65336
thorax 0.93465 -0.555378 -4.11548
lowerneck 7.13548 0.550925 0.595134
upperneck -25.8405 -0.206232 -2.67203
head -9.27494 -0.0886416 -0.965524
rclavicle -1.43125e-014 -3.04141e-014
rhumerus 15.7733 24.9672 -59.081
rradius 118.327
rwrist 16.0765
rhand -47.7948 7.98445
rfingers 7.12502
rthumb -20.4712 -20.9564
lclavicle -1.43125e-014 -3.04141e-014
lhumerus 64.2961 -22.2898 20.7407
lradius 94.6318
lwrist 3.17751
lhand -5.31028 12.2851
lfingers 7.12502
lthumb 20.4953 41.2233
rfemur -64.9748 -13.0867 29.682
rtibia 74.0932
rfoot -29.6141 -21.4935
rtoes -4.16583
lfemur -65.1741 9.75481 -21.6466
ltibia 65.5489
lfoot -17.2425 -1.39442
ltoes 3.26262
1263
root 0.444748 14.6259 -2.57285 386.844 -78.391 -369.308
lowerback 39.2624 1.85484 0.53598
upperback 18.1198 -0.0122269 -3.63804
thorax 0.819699 -0.549396 -4.11243
lowerneck 6.91799 0.583062 0.654872
upperneck -26.1649 -0.166673 -2.64115
head -9.34742 -0.0889645 -0.969531
rclavicle 5.08889e-014 -1.05356e-014
rhumerus 15.6575 25.0929 -59.1571
rradius 118.236
rwrist 16.026
rhand -47.7477 7.94822
rfingers 7.12502
rthumb -20.4259 -20.9974
lclavicle 5.08889e-014 -1.05356e-014
lhumerus 64.1765 -22.7238 20.8716
lradius 94.5686
lwrist 3.25932
lhand -5.15776 12.4226
lfingers 7.12502
lthumb 20.6418 41.3449
rfemur -65.0103 -13.0871 29.6934
rtibia 74.077
rfoot -29.5982 -21.4836
rtoes -4.1777
lfemur -65.2129 9.74883 -21.6526
ltibia 65.5467
lfoot -17.2487 -1.37499
ltoes 3.24224
1264
root 0.442418 14.6269 -2.56989 386.935 -78.3969 -369.356
lowerback 39.2595 1.82773 0.566381
upperback 18.0192 -0.0200573 -3.63109
thorax 0.708687 -0.548929 -4.1163
lowerneck 6.71249 0.610256 0.717805
upperneck -26.4768 -0.134415 -2.61393
head -9.41827 -0.0928109 -0.97454
rclavicle 4.77083e-015 8.80616e-014
rhumerus 15.5786 25.2358 -59.23
rradius 118.128
rwrist 15.9848
rhand -47.6905 7.92235
rfingers 7.12502
rthumb -20.371 -21.0292
lclavicle 4.77083e-015 8.80616e-014
lhumerus 64.0415 -23.1478 20.9685
lradius 94.5019
lwrist 3.42508
lhand -4.80049 12.5664
lfingers 7.12502
lthumb 20.9851 41.4512
rfemur -65.0433 -13.0944 29.7077
rtibia 74.0636
rfoot -29.5845 -21.4715
rtoes -4.18643
lfemur -65.2503 9.74301 -21.6568
ltibia 65.5483
lfoot -17.2543 -1.35825
ltoes 3.2157
1265
root 0.439911 14.6277 -2.56687 387.015 -78.4021 -369.397
lowerback 39.2541 1.79469 0.593924
upperback 17.9215 -0.0365256 -3.62896
thorax 0.600973 -0.552734 -4.12104
lowerneck 6.52846 0.632687 0.789222
upperneck -26.7717 -0.111146 -2.60329
head -9.48766 -0.0997723 -0.985829
rclavicle 7.71285e-014 9.52179e-014
rhumerus 15.5292 25.3894 -59.2954
rradius 118.011
rwrist 15.9594
rhand -47.6296 7.90504
rfingers 7.12502
rthumb -20.3125 -21.0527
lclavicle 7.71285e-014 9.52179e-014
lhumerus 63.8922 -23.5549 21.0455
lradius 94.437
lwrist 3.70494
lhand -4.24541 12.7351
lfingers 7.12502
lthumb 21.5183 41.5598
rfemur -65.0721 -13.107 29.7211
rtibia 74.0543
rfoot -29.5725 -21.4571
rtoes -4.19704
lfemur -65.2837 9.7405 -21.663
ltibia 65.5543
lfoot -17.2603 -1.34717
ltoes 3.19482
